<?xml version="1.0"?>
<svg xmlns="http://www.w3.org/2000/svg" id="Layer_1" height="512px" viewBox="0 0 91 91" width="512px" data-name="Layer 1"><g><path d="m13.74 37.05h74.26v46.37h-74.26z" fill="#afdcc9" data-original="#AFDCC9"/><path d="m25.27 38h-10.39v9.46c5.52-.46 9.94-4.46 10.39-9.46z" fill="#fff" data-original="#FFF"/><path d="m76.83 36.14-5.13-15.25-42.04 15.25z" fill="#fcefbb" data-original="#FCEFBB"/><path d="m76.46 82.41h10.39v-9.41c-5.52.32-9.95 4.35-10.39 9.41z" fill="#fff" data-original="#FFF"/><path d="m14.9 73v9.46h10.39c-.44-5.11-4.87-9.14-10.39-9.46z" fill="#fff" data-original="#FFF"/><path d="m76.48 38c.45 5 4.87 9 10.39 9.41v-9.41z" fill="#fff" data-original="#FFF"/><path d="m67.2 60.23a15.73 15.73 0 1 1 -15.73-15.73 15.73 15.73 0 0 1 15.73 15.73z" fill="#fff" data-original="#FFF"/><g fill="#4e7a9e"><path d="m14.05 65.1a1.75 1.75 0 0 1 -1.47-.79l-11.64-17.74a1.75 1.75 0 0 1 .5-2.42l56.82-37.31a1.75 1.75 0 0 1 1.32-.25 1.71 1.71 0 0 1 1.1.75l5.51 8.38a1.75 1.75 0 1 1 -2.93 1.92l-4.54-6.91-53.9 35.39 10.69 16.27a1.75 1.75 0 0 1 -.51 2.42 1.68 1.68 0 0 1 -.95.29z" data-original="#4E7A9E" class="active-path" style="fill:#4E7A9E"/><path d="m24.91 38.85a1.75 1.75 0 0 1 -.6-3.4l47.31-17.16a1.82 1.82 0 0 1 1.34.06 1.8 1.8 0 0 1 .91 1l4.13 11.36a1.75 1.75 0 1 1 -3.29 1.19l-3.52-9.72-45.69 16.56a1.76 1.76 0 0 1 -.59.11z" data-original="#4E7A9E" class="active-path" style="fill:#4E7A9E"/><path d="m87.71 85h-73.71a1.75 1.75 0 0 1 -1.75-1.75v-46.15a1.75 1.75 0 0 1 1.75-1.75h73.71a1.75 1.75 0 0 1 1.75 1.75v46.16a1.75 1.75 0 0 1 -1.75 1.74zm-71.92-3.5h70.21v-42.65h-70.21z" data-original="#4E7A9E" class="active-path" style="fill:#4E7A9E"/><path d="m51.47 78.17a17.93 17.93 0 1 1 17.53-17.92 17.72 17.72 0 0 1 -17.53 17.92zm0-32.34a14.43 14.43 0 1 0 14 14.42 14.22 14.22 0 0 0 -14-14.42z" data-original="#4E7A9E" class="active-path" style="fill:#4E7A9E"/><path d="m87.71 50c-7.64 0-13.86-5.8-13.86-12.92a1.75 1.75 0 1 1 3.5 0c0 5.19 4.65 9.42 10.36 9.42a1.75 1.75 0 0 1 0 3.5z" data-original="#4E7A9E" class="active-path" style="fill:#4E7A9E"/><path d="m14 50a1.75 1.75 0 0 1 0-3.5c5.71 0 10.36-4.23 10.36-9.42a1.75 1.75 0 0 1 3.5 0c.04 7.14-6.18 12.92-13.86 12.92z" data-original="#4E7A9E" class="active-path" style="fill:#4E7A9E"/><path d="m75.6 85a1.75 1.75 0 0 1 -1.75-1.75c0-7.12 6.22-12.92 13.86-12.92a1.75 1.75 0 1 1 0 3.5c-5.71 0-10.36 4.23-10.36 9.42a1.75 1.75 0 0 1 -1.75 1.75z" data-original="#4E7A9E" class="active-path" style="fill:#4E7A9E"/><path d="m26.15 85a1.75 1.75 0 0 1 -1.75-1.75c0-5.19-4.65-9.42-10.36-9.42a1.75 1.75 0 1 1 0-3.5c7.64 0 13.86 5.8 13.86 12.92a1.75 1.75 0 0 1 -1.75 1.75z" data-original="#4E7A9E" class="active-path" style="fill:#4E7A9E"/><path d="m51.54 73.4a1.75 1.75 0 0 1 -1.75-1.75v-22.23a1.75 1.75 0 0 1 3.5 0v22.23a1.75 1.75 0 0 1 -1.75 1.75z" data-original="#4E7A9E" class="active-path" style="fill:#4E7A9E"/><path d="m53.25 70.77h-4c-3.73 0-6.77-2.67-6.77-6a1.75 1.75 0 0 1 3.5 0c0 1.34 1.5 2.46 3.27 2.46h4c1.78 0 3.28-1.12 3.28-2.46v-.22c0-.76-.63-1.39-1.6-1.63l-8.26-1.7a5.37 5.37 0 0 1 -4.24-5v-.22c0-3.28 3-5.95 6.77-5.95h4c3.8.05 6.8 2.72 6.8 6a1.75 1.75 0 0 1 -3.5 0c0-1.33-1.5-2.45-3.28-2.45h-4c-1.77 0-3.27 1.12-3.27 2.45v.23a1.91 1.91 0 0 0 1.46 1.55l8.31 1.71a5.3 5.3 0 0 1 4.28 5.06v.21c0 3.29-3 5.96-6.75 5.96z" data-original="#4E7A9E" class="active-path" style="fill:#4E7A9E"/></g><path d="m28 62.38h-6a1.75 1.75 0 1 1 0-3.5h6a1.75 1.75 0 1 1 0 3.5z" fill="#fff" data-original="#FFF"/><path d="m81.13 62.38h-6a1.75 1.75 0 0 1 0-3.5h6a1.75 1.75 0 0 1 0 3.5z" fill="#fff" data-original="#FFF"/></g> </svg>
