<?xml version="1.0"?>
<svg xmlns="http://www.w3.org/2000/svg" id="Capa_1" enable-background="new 0 0 512 512" height="512px" viewBox="0 0 512 512" width="512px"><g><path d="m143.167 399.5h-30l30 105h90l-60-75c0-16.569-13.432-30-30-30z" fill="#ffc85f" data-original="#FFC85F"/><path d="m113.167 399.5h-75.667c-16.569 0-30 13.431-30 30v75h135.667v-75c0-16.569-13.432-30-30-30z" fill="#ffe278" data-original="#FFE278"/><path d="m308.833 399.5h-30l30 105h90l-60-75c0-16.569-13.431-30-30-30z" fill="#12b5ff" data-original="#12B5FF"/><path d="m278.833 399.5h-75.667c-16.569 0-30 13.431-30 30v75h135.667v-75c0-16.569-13.431-30-30-30z" fill="#48d9ff" data-original="#48D9FF"/><path d="m474.5 399.5h-30l30 105h30v-75c0-16.569-13.431-30-30-30z" fill="#db3916" data-original="#DB3916"/><path d="m444.5 399.5h-75.667c-16.569 0-30 13.431-30 30v75h135.667v-75c0-16.569-13.431-30-30-30z" fill="#fc5a37" data-original="#FC5A37"/><path d="m421.667 249.5v120c28.995 0 52.5-23.505 52.5-52.5v-15c0-28.995-23.505-52.5-52.5-52.5z" fill="#fd805e" data-original="#FD805E"/><path d="m421.667 249.5c-28.995 0-52.5 23.505-52.5 52.5v15c0 28.995 23.505 52.5 52.5 52.5 12.426 0 22.5-23.505 22.5-52.5v-15c0-28.995-10.074-52.5-22.5-52.5z" fill="#fea686" data-original="#FEA686"/><path d="m256 249.5v120c28.995 0 52.5-23.505 52.5-52.5v-15c0-28.995-23.505-52.5-52.5-52.5z" fill="#feccad" data-original="#FECCAD"/><path d="m256 249.5c-28.995 0-52.5 23.505-52.5 52.5v15c0 28.995 23.505 52.5 52.5 52.5 12.426 0 22.5-23.505 22.5-52.5v-15c0-28.995-10.074-52.5-22.5-52.5z" fill="#fff2d4" data-original="#FFF2D4"/><path d="m90.333 249.5v120c28.995 0 52.5-23.505 52.5-52.5v-15c0-28.995-23.505-52.5-52.5-52.5z" fill="#fea686" data-original="#FEA686"/><path d="m90.333 249.5c-28.995 0-52.5 23.505-52.5 52.5v15c0 28.995 23.505 52.5 52.5 52.5 12.426 0 22.5-23.505 22.5-52.5v-15c0-28.995-10.073-52.5-22.5-52.5z" fill="#feccad" data-original="#FECCAD"/><path d="m223.194 91c-2.173-8.542-5.557-16.6-9.954-23.985.032.032 7.319-17.862 7.319-17.862l-21.212-21.213-17.894 7.287c-7.353-4.365-15.411-7.749-23.953-9.922 0 .001-7.5-17.805-7.5-17.805h-15l-20 30.5 20 30.5c24.853 0 45 20.147 45 45s-20.147 45-45 45l-20 30.5 20 30.5h15l7.5-17.806c8.542-2.173 16.6-5.557 23.985-9.954-.032.032 17.862 7.319 17.862 7.319l21.213-21.213-7.287-17.894c4.365-7.353 7.749-15.411 9.922-23.953 0 0 17.806-7.5 17.806-7.5v-30z" fill="#73a7e6" data-original="#73A7E6"/><path d="m46.806 91c2.173-8.542 5.557-16.6 9.954-23.985-.032.032-7.319-17.862-7.319-17.862l21.212-21.213 17.894 7.287c7.353-4.365 15.411-7.749 23.953-9.922 0 .001 7.5-17.805 7.5-17.805h15v61c-24.853 0-45 20.147-45 45s20.147 45 45 45v61h-15l-7.5-17.806c-8.542-2.173-16.6-5.557-23.985-9.954.032.032-17.862 7.319-17.862 7.319l-21.213-21.212 7.287-17.894c-4.365-7.353-7.749-15.411-9.922-23.953 0 0-17.806-7.5-17.806-7.5v-30z" fill="#a8cfff" data-original="#A8CFFF"/><path d="m135 52.5c-33.689 0-61 27.311-61 61s27.311 61 61 61 61-27.311 61-61-27.311-61-61-61zm0 91c-16.569 0-30-13.431-30-30s13.431-30 30-30 30 13.431 30 30-13.431 30-30 30z" fill="#487ed2" data-original="#487ED2"/><path d="m465.194 91c-2.173-8.542-5.557-16.6-9.954-23.985.032.032 7.319-17.862 7.319-17.862l-21.212-21.213-17.894 7.287c-7.353-4.365-15.411-7.749-23.953-9.922 0 .001-7.5-17.805-7.5-17.805h-15l-20 30.5 20 30.5c24.853 0 45 20.147 45 45s-20.147 45-45 45l-20 30.5 20 30.5h15l7.5-17.806c8.542-2.173 16.6-5.557 23.985-9.954-.032.032 17.862 7.319 17.862 7.319l21.213-21.213-7.287-17.894c4.365-7.353 7.749-15.411 9.922-23.953 0 0 17.806-7.5 17.806-7.5v-30z" fill="#73a7e6" data-original="#73A7E6"/><path d="m288.806 91c2.173-8.542 5.557-16.6 9.954-23.985-.032.032-7.319-17.862-7.319-17.862l21.213-21.213 17.894 7.287c7.353-4.365 15.411-7.749 23.953-9.922-.001.001 7.499-17.805 7.499-17.805h15v61c-24.853 0-45 20.147-45 45s20.147 45 45 45v61h-15l-7.5-17.806c-8.542-2.173-16.6-5.557-23.985-9.954.032.032-17.862 7.319-17.862 7.319l-21.213-21.213 7.287-17.894c-4.365-7.353-7.749-15.411-9.922-23.953 0 0-17.806-7.5-17.806-7.5v-30z" fill="#a8cfff" data-original="#A8CFFF"/><path d="m377 52.5c-33.689 0-61 27.311-61 61s27.311 61 61 61 61-27.311 61-61-27.311-61-61-61zm0 91c-16.569 0-30-13.431-30-30s13.431-30 30-30 30 13.431 30 30-13.431 30-30 30z" fill="#487ed2" data-original="#487ED2"/><path d="m421.667 242c-33.084 0-60 26.916-60 60v15c0 33.084 26.916 60 60 60s60-26.916 60-60v-15c0-33.084-26.917-60-60-60zm45 75c0 24.813-20.187 45-45 45s-45-20.187-45-45v-15c0-24.813 20.187-45 45-45s45 20.187 45 45z" data-original="#000000" class="active-path" style="fill:#000000"/><path d="m439.179 314.934c-3.903-1.39-8.192.65-9.579 4.554-1.19 3.349-4.378 5.599-7.933 5.599s-6.743-2.25-7.933-5.599c-1.388-3.903-5.679-5.943-9.579-4.554-3.903 1.388-5.942 5.676-4.555 9.579 3.312 9.314 12.18 15.573 22.067 15.573s18.755-6.259 22.067-15.573c1.387-3.904-.652-8.192-4.555-9.579z" data-original="#000000" class="active-path" style="fill:#000000"/><path d="m196 302v15c0 33.084 26.916 60 60 60s60-26.916 60-60v-15c0-33.084-26.916-60-60-60s-60 26.916-60 60zm60-45c24.813 0 45 20.187 45 45v15c0 24.813-20.187 45-45 45s-45-20.187-45-45v-15c0-24.813 20.187-45 45-45z" data-original="#000000" class="active-path" style="fill:#000000"/><path d="m256 340.086c9.887 0 18.755-6.259 22.067-15.573 1.387-3.903-.652-8.191-4.555-9.579-3.901-1.39-8.192.65-9.579 4.554-1.19 3.349-4.378 5.599-7.933 5.599s-6.743-2.25-7.933-5.599c-1.388-3.903-5.68-5.943-9.579-4.554-3.903 1.388-5.942 5.676-4.555 9.579 3.312 9.314 12.18 15.573 22.067 15.573z" data-original="#000000" class="active-path" style="fill:#000000"/><path d="m90.333 242c-33.084 0-60 26.916-60 60v15c0 33.084 26.916 60 60 60s60-26.916 60-60v-15c0-33.084-26.916-60-60-60zm45 75c0 24.813-20.187 45-45 45s-45-20.187-45-45v-15c0-24.813 20.187-45 45-45s45 20.187 45 45z" data-original="#000000" class="active-path" style="fill:#000000"/><path d="m107.846 314.934c-3.902-1.39-8.191.65-9.579 4.554-1.19 3.349-4.378 5.599-7.933 5.599s-6.743-2.25-7.933-5.599c-1.388-3.903-5.679-5.943-9.579-4.554-3.903 1.388-5.942 5.676-4.555 9.579 3.312 9.314 12.18 15.573 22.067 15.573s18.755-6.259 22.067-15.573c1.387-3.904-.652-8.192-4.555-9.579z" data-original="#000000" class="active-path" style="fill:#000000"/><path d="m474.5 392h-105.667c-12.254 0-23.153 5.909-30 15.026-6.847-9.117-17.746-15.026-30-15.026h-105.666c-12.254 0-23.153 5.909-30 15.026-6.847-9.117-17.746-15.026-30-15.026h-105.667c-20.678 0-37.5 16.822-37.5 37.5v75c0 4.143 3.358 7.5 7.5 7.5h497c4.142 0 7.5-3.357 7.5-7.5v-75c0-20.678-16.822-37.5-37.5-37.5zm-143.167 105h-150.666v-37.5c0-4.143-3.358-7.5-7.5-7.5s-7.5 3.357-7.5 7.5v37.5h-150.667v-67.5c0-12.406 10.093-22.5 22.5-22.5h105.667c12.407 0 22.5 10.094 22.5 22.5 0 4.143 3.358 7.5 7.5 7.5s7.5-3.357 7.5-7.5c0-12.406 10.093-22.5 22.5-22.5h105.667c12.407 0 22.5 10.094 22.5 22.5v67.5zm165.667 0h-150.667v-67.5c0-12.406 10.093-22.5 22.5-22.5h105.667c12.407 0 22.5 10.094 22.5 22.5z" data-original="#000000" class="active-path" style="fill:#000000"/><path d="m135 151c20.678 0 37.5-16.822 37.5-37.5s-16.822-37.5-37.5-37.5-37.5 16.822-37.5 37.5 16.822 37.5 37.5 37.5zm0-60c12.407 0 22.5 10.094 22.5 22.5s-10.093 22.5-22.5 22.5-22.5-10.094-22.5-22.5 10.093-22.5 22.5-22.5z" data-original="#000000" class="active-path" style="fill:#000000"/><path d="m26.089 135.412 14.453 6.088c1.95 6.586 4.59 12.95 7.882 19-.656 1.599-1.472 3.591-2.286 5.583-1.825 4.468-3.644 8.935-3.644 8.935-1.138 2.795-.491 5.999 1.643 8.133l21.213 21.213c2.133 2.133 5.337 2.78 8.132 1.643l14.525-5.916c6.049 3.285 12.411 5.921 18.993 7.869l6.088 14.452c1.171 2.781 3.895 4.589 6.912 4.589h30c3.017 0 5.741-1.808 6.912-4.589l6.088-14.453c6.585-1.95 12.951-4.591 19.001-7.883 1.598.656 3.59 1.472 5.583 2.285 4.468 1.825 8.935 3.645 8.935 3.645 2.792 1.138 5.999.489 8.132-1.643l21.213-21.213c2.134-2.134 2.781-5.338 1.643-8.133l-5.916-14.525c3.284-6.048 5.92-12.41 7.868-18.992l14.453-6.088c2.781-1.172 4.589-3.895 4.589-6.912v-30c0-3.018-1.808-5.74-4.589-6.912l-14.454-6.088c-1.95-6.585-4.59-12.949-7.882-19 .656-1.599 1.472-3.591 2.286-5.583 1.825-4.468 3.644-8.935 3.644-8.935 1.138-2.795.491-5.999-1.643-8.133l-21.213-21.212c-2.133-2.132-5.338-2.781-8.132-1.643l-14.525 5.916c-6.049-3.285-12.411-5.921-18.993-7.869l-6.088-14.452c-1.171-2.781-3.895-4.589-6.912-4.589h-30c-3.017 0-5.741 1.808-6.912 4.589l-6.088 14.452c-6.585 1.95-12.951 4.591-19.001 7.883-1.598-.656-3.59-1.472-5.583-2.285-4.468-1.825-8.935-3.645-8.935-3.645-2.792-1.138-5.999-.49-8.132 1.643l-21.212 21.213c-2.134 2.134-2.781 5.338-1.643 8.133l5.916 14.525c-3.284 6.049-5.92 12.412-7.868 18.993l-14.453 6.087c-2.781 1.172-4.589 3.894-4.589 6.912v30c0 3.018 1.808 5.74 4.589 6.912zm10.411-31.933c5.155-2.172 12.854-5.414 13.191-5.556 2.174-.906 3.8-2.784 4.383-5.074 1.961-7.71 5.023-15.103 9.103-21.975 1.199-2.019 1.382-4.482.497-6.657l-5.409-13.282 14.17-14.17c5.639 2.3 11.899 4.859 12.915 5.293.028.014.056.026.084.039 2.231 1.004 4.814.859 6.918-.394 6.876-4.095 14.277-7.166 21.997-9.13 2.277-.579 4.151-2.192 5.063-4.357l5.567-13.216h20.042c2.17 5.151 5.41 12.845 5.558 13.195.907 2.172 2.784 3.797 5.072 4.379 7.709 1.961 15.103 5.023 21.974 9.103 2.019 1.199 4.483 1.382 6.657.497l13.282-5.409 14.171 14.17c-2.299 5.637-4.858 11.895-5.293 12.913-.013.028-.026.057-.039.085-1.006 2.232-.859 4.815.393 6.919 4.095 6.877 7.167 14.277 9.13 21.997.579 2.277 2.192 4.151 4.357 5.063l13.217 5.567v20.041l-13.217 5.567c-2.165.912-3.778 2.786-4.357 5.063-1.961 7.711-5.024 15.104-9.103 21.973-1.199 2.02-1.382 4.483-.497 6.658l5.409 13.282-14.17 14.17c-5.639-2.3-11.899-4.859-12.915-5.293-.028-.014-.056-.026-.084-.039-2.232-1.005-4.815-.859-6.918.394-6.876 4.095-14.277 7.166-21.997 9.13-2.277.579-4.151 2.192-5.063 4.357l-5.567 13.218h-20.042c-2.17-5.151-5.41-12.845-5.558-13.195-.907-2.172-2.784-3.797-5.072-4.379-7.709-1.961-15.103-5.023-21.974-9.103-2.02-1.199-4.483-1.381-6.657-.497l-13.282 5.409-14.171-14.17c2.3-5.638 4.859-11.896 5.293-12.914.013-.027.026-.057.039-.085 1.006-2.231.859-4.814-.394-6.918-4.094-6.875-7.166-14.276-9.129-21.997-.579-2.277-2.192-4.151-4.357-5.063l-13.217-5.567z" data-original="#000000" class="active-path" style="fill:#000000"/><path d="m135 182c37.771 0 68.5-30.729 68.5-68.5s-30.729-68.5-68.5-68.5-68.5 30.729-68.5 68.5 30.729 68.5 68.5 68.5zm0-122c29.5 0 53.5 24 53.5 53.5s-24 53.5-53.5 53.5-53.5-24-53.5-53.5 24-53.5 53.5-53.5z" data-original="#000000" class="active-path" style="fill:#000000"/><path d="m377 151c20.678 0 37.5-16.822 37.5-37.5s-16.822-37.5-37.5-37.5-37.5 16.822-37.5 37.5 16.822 37.5 37.5 37.5zm0-60c12.407 0 22.5 10.094 22.5 22.5s-10.093 22.5-22.5 22.5-22.5-10.094-22.5-22.5 10.093-22.5 22.5-22.5z" data-original="#000000" class="active-path" style="fill:#000000"/><path d="m268.089 135.412 14.453 6.088c1.95 6.586 4.59 12.95 7.882 19-.656 1.599-1.472 3.591-2.286 5.583-1.825 4.468-3.644 8.935-3.644 8.935-1.138 2.795-.491 5.999 1.643 8.133l21.213 21.213c2.133 2.133 5.338 2.78 8.132 1.643l14.525-5.916c6.049 3.285 12.411 5.921 18.993 7.869l6.088 14.452c1.171 2.781 3.895 4.589 6.912 4.589h30c3.017 0 5.741-1.808 6.912-4.589l6.088-14.453c6.585-1.95 12.951-4.591 19.001-7.883 1.598.656 3.59 1.472 5.583 2.285 4.468 1.825 8.935 3.645 8.935 3.645 2.793 1.138 5.998.489 8.132-1.643l21.213-21.213c2.134-2.134 2.781-5.338 1.643-8.133l-5.916-14.525c3.284-6.048 5.92-12.41 7.868-18.992l14.453-6.088c2.781-1.172 4.589-3.895 4.589-6.912v-30c0-3.018-1.808-5.74-4.589-6.912l-14.454-6.088c-1.95-6.585-4.59-12.949-7.882-19 .656-1.599 1.472-3.591 2.286-5.583 1.825-4.468 3.644-8.935 3.644-8.935 1.138-2.795.491-5.999-1.643-8.133l-21.213-21.212c-2.133-2.132-5.338-2.781-8.132-1.643l-14.525 5.916c-6.049-3.285-12.411-5.921-18.993-7.869l-6.088-14.452c-1.171-2.781-3.895-4.589-6.912-4.589h-30c-3.017 0-5.741 1.808-6.912 4.589l-6.088 14.452c-6.585 1.95-12.951 4.591-19.001 7.883-1.598-.656-3.59-1.472-5.583-2.285-4.468-1.825-8.935-3.645-8.935-3.645-2.793-1.138-5.998-.49-8.132 1.643l-21.212 21.213c-2.134 2.134-2.781 5.338-1.643 8.133l5.916 14.525c-3.284 6.049-5.92 12.412-7.868 18.993l-14.453 6.087c-2.781 1.172-4.589 3.895-4.589 6.912v30c0 3.018 1.808 5.74 4.589 6.912zm10.411-31.933c5.155-2.172 12.854-5.414 13.191-5.556 2.174-.906 3.8-2.784 4.383-5.074 1.961-7.71 5.023-15.103 9.103-21.975 1.199-2.019 1.382-4.482.497-6.657l-5.409-13.282 14.17-14.17c5.639 2.3 11.899 4.859 12.915 5.293.028.014.056.026.084.039 2.232 1.004 4.815.859 6.918-.394 6.876-4.095 14.277-7.166 21.997-9.13 2.277-.579 4.151-2.192 5.063-4.357l5.567-13.216h20.042c2.17 5.151 5.41 12.845 5.558 13.195.907 2.172 2.784 3.797 5.072 4.379 7.709 1.961 15.103 5.023 21.974 9.103 2.02 1.199 4.484 1.382 6.657.497l13.282-5.409 14.171 14.17c-2.299 5.637-4.858 11.895-5.293 12.913-.013.028-.026.057-.039.085-1.006 2.232-.859 4.815.393 6.919 4.095 6.877 7.167 14.277 9.13 21.997.579 2.277 2.192 4.151 4.357 5.063l13.217 5.567v20.041l-13.217 5.567c-2.165.912-3.778 2.786-4.357 5.063-1.961 7.711-5.024 15.104-9.103 21.973-1.199 2.02-1.382 4.483-.497 6.658l5.409 13.282-14.17 14.17c-5.639-2.3-11.899-4.859-12.915-5.293-.028-.014-.056-.026-.084-.039-2.231-1.005-4.814-.859-6.918.394-6.876 4.095-14.277 7.166-21.997 9.13-2.277.579-4.151 2.192-5.063 4.357l-5.567 13.218h-20.042c-2.17-5.151-5.41-12.845-5.558-13.195-.907-2.172-2.784-3.797-5.072-4.379-7.709-1.961-15.103-5.023-21.974-9.103-2.02-1.199-4.483-1.381-6.657-.497l-13.282 5.409-14.171-14.17c2.3-5.638 4.859-11.896 5.293-12.914.013-.027.026-.057.039-.085 1.006-2.231.859-4.814-.394-6.918-4.094-6.875-7.166-14.276-9.129-21.997-.579-2.277-2.192-4.151-4.357-5.063l-13.217-5.567z" data-original="#000000" class="active-path" style="fill:#000000"/><path d="m377 182c37.771 0 68.5-30.729 68.5-68.5s-30.729-68.5-68.5-68.5-68.5 30.729-68.5 68.5 30.729 68.5 68.5 68.5zm0-122c29.5 0 53.5 24 53.5 53.5s-24 53.5-53.5 53.5-53.5-24-53.5-53.5 24-53.5 53.5-53.5z" data-original="#000000" class="active-path" style="fill:#000000"/></g> </svg>
