<?xml version="1.0"?>
<svg xmlns="http://www.w3.org/2000/svg" id="Layer_1" enable-background="new 0 0 69 69" height="512px" viewBox="0 0 69 69" width="512px"><g><g><g fill="#f69a8b"><path d="m3.5 51.666h6.514v12.363h-6.514z" data-original="#F69A8B"/><path d="m17.372 40.427h6.514v23.602h-6.514z" data-original="#F69A8B"/><path d="m31.243 51.666h6.514v12.363h-6.514z" data-original="#F69A8B"/><path d="m45.115 40.427h6.514v23.602h-6.514z" data-original="#F69A8B"/><path d="m58.986 29.188h6.514v34.841h-6.514z" data-original="#F69A8B"/></g><g fill="#626975"><path d="m10.01465 50.66631h-6.51465c-.55273 0-1 .44775-1 1v12.36279c0 .55225.44727 1 1 1h6.51465c.55273 0 1-.44775 1-1v-12.36279c0-.55225-.44727-1-1-1zm-1 12.36279h-4.51465v-10.36279h4.51465z" data-original="#626975"/><path d="m23.88574 39.42705h-6.51367c-.55273 0-1 .44775-1 1v23.60205c0 .55225.44727 1 1 1h6.51367c.55273 0 1-.44775 1-1v-23.60205c0-.55224-.44726-1-1-1zm-1 23.60205h-4.51367v-21.60205h4.51367z" data-original="#626975"/><path d="m37.75781 50.66631h-6.51465c-.55273 0-1 .44775-1 1v12.36279c0 .55225.44727 1 1 1h6.51465c.55273 0 1-.44775 1-1v-12.36279c0-.55225-.44726-1-1-1zm-1 12.36279h-4.51465v-10.36279h4.51465z" data-original="#626975"/><path d="m51.62891 39.42705h-6.51465c-.55273 0-1 .44775-1 1v23.60205c0 .55225.44727 1 1 1h6.51465c.55273 0 1-.44775 1-1v-23.60205c0-.55224-.44727-1-1-1zm-1 23.60205h-4.51465v-21.60205h4.51465z" data-original="#626975"/><path d="m65.5 28.18828h-6.51367c-.55273 0-1 .44775-1 1v34.84082c0 .55225.44727 1 1 1h6.51367c.55273 0 1-.44775 1-1v-34.84082c0-.55224-.44727-1-1-1zm-1 34.84082h-4.51367v-32.84082h4.51367z" data-original="#626975"/><path d="m7.47852 44.34502 13.15332-13.69238 13.14941 13.58154c.45631.46789 1.11306.3539 1.4541-.01855l26.00464-28.24725.00317 6.90546c0 .55225.44824.99951 1 .99951h.00098c.55176-.00049.99902-.44824.99902-1.00049l-.00488-9.46533c0-.00305-.00171-.00549-.00171-.00854-.00167-.61485-.52189-1.02224-1.05249-.99103l-9.41064-.00531c-.00098 0-.00098 0-.00098 0-.55176 0-1 .44727-1 .99951s.44727 1 .99902 1.00049l7.18848.00415-25.47851 27.67504-13.13379-13.56543c-.18848-.19434-.44824-.3042-.71875-.3042-.00098 0-.00098 0-.00195 0-.27148.00049-.53125.11133-.71875.30713l-13.8711 14.43994c-.38281.39844-.37012 1.03125.02832 1.41406.39488.37992 1.02755.37256 1.41309-.02832z" data-original="#626975"/></g><g><g><circle cx="34.5" cy="14.527" fill="#5bbe88" r="10.556" data-original="#5BBE88"/></g><path d="m34.49609 13.52715c-.63379 0-1.14941-.51953-1.14941-1.1582 0-.63428.51563-1.1499 1.14941-1.1499.63867 0 1.1582.51563 1.1582 1.1499 0 .55225.44727 1 1 1s1-.44775 1-1c0-1.38617-.90845-2.5528-2.1582-2.97272v-.4057c0-.55225-.44727-1-1-1s-1 .44775-1 1v.40656c-1.24475.42078-2.14941 1.58673-2.14941 2.97186 0 1.74121 1.41309 3.1582 3.14941 3.1582.63867 0 1.1582.51563 1.1582 1.1499 0 .63867-.51953 1.1582-1.1582 1.1582-.63379 0-1.14941-.51953-1.14941-1.1582 0-.55225-.44727-1-1-1s-1 .44775-1 1c0 1.38867.90466 2.5578 2.14941 2.97968v.40704c0 .55225.44727 1 1 1s1-.44775 1-1v-.40619c1.24976-.42108 2.1582-1.59082 2.1582-2.98053.00001-1.73682-1.41699-3.1499-3.1582-3.1499z" fill="#fff" data-original="#FFF" class="active-path" style="fill:#FFFFFF" data-old_color="#fff"/></g></g></g> </svg>
