<?xml version="1.0"?>
<svg xmlns="http://www.w3.org/2000/svg" xmlns:xlink="http://www.w3.org/1999/xlink" xmlns:svgjs="http://svgjs.com/svgjs" version="1.1" width="512" height="512" x="0" y="0" viewBox="0 0 48 48" style="enable-background:new 0 0 512 512" xml:space="preserve" class=""><g><g xmlns="http://www.w3.org/2000/svg"><path d="m42.54 19.03v-5.16c0-.36-.19-.69-.5-.87l-4.47-2.58-2.58-4.47c-.18-.31-.51-.5-.87-.5h-5.16l-4.46-2.56c-.31-.18-.69-.18-1 0l-4.47 2.58h-5.16c-.36 0-.69.19-.87.5l-2.58 4.47-4.47 2.58c-.31.18-.5.51-.5.87v5.16l-2.56 4.45c-.18.31-.18.69 0 1l2.58 4.47v5.16c0 .36.19.69.5.87l4.47 2.58 2.58 4.47c.18.31.51.5.87.5h5.16l4.47 2.58c.15.09.33.13.5.13s.35-.05.5-.13l4.47-2.58h5.16c.36 0 .69-.19.87-.5l2.58-4.47 4.47-2.58c.31-.18.5-.51.5-.87v-5.16l2.58-4.46c.18-.31.18-.69 0-1zm-1.87 9.17c-.09.15-.13.33-.13.5v4.85l-4.2 2.43c-.15.09-.28.21-.37.37l-2.42 4.2h-4.85c-.17 0-.35.05-.5.13l-4.2 2.41-4.2-2.42c-.15-.09-.33-.13-.5-.13h-4.85l-2.42-4.2c-.09-.15-.21-.28-.37-.37l-4.2-2.43v-4.84c0-.17-.05-.35-.13-.5l-2.42-4.2 2.42-4.2c.09-.15.13-.33.13-.5v-4.85l4.2-2.43c.15-.09.28-.21.37-.37l2.42-4.2h4.85c.17 0 .35-.05.5-.13l4.2-2.41 4.2 2.42c.15.09.33.13.5.13h4.85l2.42 4.2c.09.15.21.28.37.37l4.2 2.43v4.85c0 .17.05.35.13.5l2.42 4.2z" fill="#ffffff" data-original="#000000" style="" class=""/><path d="m24 10c-7.72 0-14 6.28-14 14s6.28 14 14 14 14-6.28 14-14-6.28-14-14-14zm0 26c-6.62 0-12-5.38-12-12s5.38-12 12-12 12 5.38 12 12-5.38 12-12 12z" fill="#ffffff" data-original="#000000" style="" class=""/><path d="m31.49 20.14-11.25 6.56-3.46-4.33c-.34-.43-.97-.5-1.41-.16-.43.34-.5.97-.16 1.41l4 5c.2.24.49.38.79.38.18 0 .35-.05.5-.14l12-7c.48-.28.64-.89.36-1.37-.14-.23-.35-.4-.61-.46-.26-.07-.52-.03-.76.11z" fill="#ffffff" data-original="#000000" style="" class=""/></g></g></svg>
